<?xml version="1.0" encoding="UTF-8"?>
<svg width="512" height="512" viewBox="0 0 512 512" xmlns="http://www.w3.org/2000/svg">
  <!-- 背景圆形 -->
  <circle cx="256" cy="256" r="240" fill="#4A90E2"/>
  
  <!-- 中心测试图标 -->
  <g transform="translate(256, 256)">
    <!-- 流程节点 -->
    <circle cx="-80" cy="-80" r="25" fill="#ffffff" opacity="0.9"/>
    <circle cx="80" cy="-80" r="25" fill="#ffffff" opacity="0.9"/>
    <circle cx="80" cy="80" r="25" fill="#ffffff" opacity="0.9"/>
    <circle cx="-80" cy="80" r="25" fill="#ffffff" opacity="0.9"/>
    
    <!-- 连接线 -->
    <path d="M -55,-80 L 55,-80" stroke="#ffffff" stroke-width="8" opacity="0.7"/>
    <path d="M 80,-55 L 80,55" stroke="#ffffff" stroke-width="8" opacity="0.7"/>
    <path d="M 55,80 L -55,80" stroke="#ffffff" stroke-width="8" opacity="0.7"/>
    <path d="M -80,55 L -80,-55" stroke="#ffffff" stroke-width="8" opacity="0.7"/>
    
    <!-- 中心播放按钮 -->
    <circle cx="0" cy="0" r="45" fill="#ffffff"/>
    <path d="M -15,-20 L -15,20 L 20,0 Z" fill="#4A90E2"/>
  </g>
  
  <!-- 外围装饰 -->
  <g transform="translate(256, 256)">
    <!-- 进度指示器 -->
    <path d="M 0,-180 A 180,180 0 0,1 127.28,-127.28" 
          stroke="#6FCF97" stroke-width="12" fill="none" stroke-linecap="round"/>
    <path d="M 127.28,127.28 A 180,180 0 0,1 0,180" 
          stroke="#F2994A" stroke-width="12" fill="none" stroke-linecap="round"/>
  </g>
</svg>